<?xml version="1.0" encoding="UTF-8"?>
<svg id="Layer_2" data-name="Layer 2" xmlns="http://www.w3.org/2000/svg" xmlns:xlink="http://www.w3.org/1999/xlink" viewBox="0 0 30.91 30.91">
  <defs>
    <style>
      .cls-1 {
        clip-path: url(#clippath);
      }

      .cls-2 {
        fill: none;
        stroke: #999;
        stroke-miterlimit: 10;
        stroke-width: .1px;
      }

      .cls-3 {
        fill: #9ac2fe;
      }

      .cls-3, .cls-4 {
        stroke-width: 0px;
      }

      .cls-4 {
        fill: #fff;
      }
    </style>
    <clipPath id="clippath">
      <circle class="cls-2" cx="15.46" cy="15.46" r="15.41"/>
    </clipPath>
  </defs>
  <g id="Artwork">
    <g>
      <g class="cls-1">
        <circle class="cls-4" cx="14.74" cy="15.27" r="17.81"/>
        <g>
          <path class="cls-3" d="m27.21,25.55v-2.2c0-.63-.15-1.08-.42-1.65-.19-.41-.43-.79-.7-1.14-.61-.8-1.32-1.34-2.07-1.78-.61-.36-1.23-.63-1.86-.89.04.12.07.24.09.36.04.22.06.47.06.74,0,.67-.13,1.29-.22,1.63.25.11.65.38.67.39.24.2.43.46.59.76.37.71.36,1.49.35,2.25,0,.13,0,.26,0,.39,0,.81,0,1.64-.08,2.29-.07.49-.16.83-.41,1.05h0s0,0,0,0c-.2.16-.46.23-.81.23-.12,0-.26,0-.42-.03-.07.02-.14.04-.22.04-.05,0-.1,0-.16-.02-.18-.04-.33-.14-.42-.27-.06-.09-.08-.19-.06-.29.02-.1.08-.18.17-.24.09-.06.2-.09.33-.09.05,0,.11,0,.16.02.17.03.31.12.4.24.06,0,.13,0,.19,0,.25,0,.39-.05.43-.08h0s0-.01,0-.01c.04-.03.13-.24.18-.64.08-.6.08-1.42.08-2.22,0-.13,0-.25,0-.38.01-.69.02-1.41-.33-2.02-.27-.47-.65-.75-1.09-.81-.05,0-.11-.01-.17-.01-.39,0-.76.18-1.09.51-.29.29-.51.68-.65,1.13-.11.35-.2.71-.29,1.06-.05.19-.1.4-.15.59-.13.48-.27,1.04-.36,1.61-.06.4-.02.63,0,.68h0s0,.01,0,.01c.05.08.32.2.66.25.08-.03.17-.05.27-.05.03,0,.06,0,.08,0,.18.02.34.1.44.22.07.08.1.19.09.28,0,.1-.06.19-.15.26-.1.08-.24.13-.39.13-.03,0-.06,0-.08,0-.19-.02-.35-.11-.45-.23-.36-.07-.75-.18-.99-.5h0s0,0,0,0c-.18-.27-.17-.63-.11-1.12.08-.62.25-1.22.41-1.81.08-.28.16-.56.22-.84.17-.71.35-1.43.9-2.04.44-.48,1.02-.76,1.6-.78.02-.09.06-.22.09-.38.06-.28.13-.71.13-1.16,0-.22-.02-.43-.05-.63-.05-.26-.14-.53-.28-.8-.56-.22-1.12-.42-1.66-.73h0s-.64-1.43-.64-1.43l-.13-.03.04-.79s.02-.02.02-.04c.33-.53.49-1.06.58-1.41.02,0,.05,0,.07,0,.2,0,.58-.09.8-.68.07-.2.11-.39.12-.49.48-1.07.58-1.71.35-2.07-.12-.18-.31-.28-.55-.28,0,0,0,0-.01,0,0-.01,0-.03,0-.04.09-.86.17-1.74.06-2.6-.11-.86-.44-1.72-1.07-2.32-.17-.16-.37-.31-.54-.47-.22-.2-.4-.43-.61-.63-.82-.8-1.98-1.22-3.12-1.15-.94.06-1.83.45-2.63.93-2.08,1.24-2.03,3.89-1.96,6.01,0,.05,0,.11,0,.16.01.08.02.12.02.12-.23,0-.42.1-.53.28-.23.37-.12,1.01.36,2.07.01.09.05.29.13.49.23.59.6.68.81.68.02,0,.05,0,.07,0,.08.33.24.82.53,1.32l.07,1.01-.12.03-.59,1.33c-.5.31-1.02.52-1.54.72-.13.26-.22.53-.27.78-.04.19-.05.45-.05.74,0,.89.16,2.02.23,2.51.03,0,.06,0,.09,0,.77,0,1.4.63,1.4,1.41s-.63,1.4-1.4,1.4-1.41-.63-1.41-1.4c0-.51.27-.96.7-1.22-.06-.38-.25-1.66-.25-2.69,0-.35.02-.63.06-.86.02-.11.05-.22.08-.34-.68.28-1.36.59-2.01.98-.63.38-1.23.84-1.77,1.46-.34.4-.64.84-.87,1.31-.58,1.18-.55,2.56-.51,3.89,2.9,3.21,7.09,5.22,11.74,5.22s8.86-2.03,11.76-5.25Z"/>
          <path class="cls-3" d="m11.58,12.74c-.12.08-.23.11-.33.11-.5,0-.6-.92-.6-.92-.19-.4-.44-.8-.49-1.26-.02-.19-.02-.46.16-.56,0,0,.07,0,.16.03.17.05.42.2.5.65,0,0,.22-.01.22-.01h.1c-.04-.31-.07-.62-.08-.94.06-.74.16-1.47.38-2.18.12-.39.3-.85.63-1.12.18-.15.37-.15.59-.1.45.09.92.14,1.39.14,1.2,0,2.4-.32,3.59-.18.2.02.41.06.58.16.22.12.38.33.48.56.23.51.18,1.09.29,1.63.05.25.14.5.23.75.06.17.12.33.17.5,0,.25,0,.49,0,.74h.27s.02-.07.04-.11c.06-.17.2-.47.39-.59h.02s0,0,0-.01c.04-.02.09-.04.13-.04.31,0,.61.3-.13,1.93,0,0-.09.92-.6.93-.09,0-.2-.03-.33-.11,0,0-.36,3.33-3.76,3.4,0,0,0,0-.01,0-.03,0-.05,0-.08,0-.03,0-.05,0-.08,0,0,0,0,0-.01,0-3.4-.05-3.78-3.38-3.78-3.38Z"/>
          <path class="cls-4" d="m16.3,20.28h-1.55l-.26,6.31-2.91-9.7.4-.91c.04.05.09.11.14.16.02.02.04.04.06.06.04.04.08.09.13.13.02.02.04.04.06.05.05.05.1.09.15.14.02.02.03.03.05.05.07.06.14.12.21.18,0,0,.01.01.02.02.07.06.14.11.21.17.02.01.03.03.05.04.07.06.14.11.21.16,0,0,.01,0,.02.01.17.13.33.25.49.36.39.28.75.51.97.65l-.82.93.81.8h1.68l.81-.92-.93-.92c.16-.11.36-.24.58-.4.15-.1.3-.22.46-.34.06-.04.12-.09.18-.14,0,0,0,0,0,0,.01,0,.02-.02.04-.03.04-.03.08-.07.13-.1.2-.16.39-.32.57-.49,0,0,.02-.02.03-.02.07-.07.14-.13.21-.2,0,0,0,0,0,0,.08-.07.15-.15.21-.22.03-.03.05-.06.08-.09.04-.05.08-.09.11-.14h0s.39.85.39.85l-2.63,9.81-.35-6.28Z"/>
          <path class="cls-3" d="m9.22,23.03c0-.26.21-.47.47-.47s.47.21.47.47-.21.47-.47.47-.47-.21-.47-.47Z"/>
        </g>
      </g>
      <circle class="cls-2" cx="15.46" cy="15.46" r="15.41"/>
    </g>
  </g>
</svg>